<svg width="380" height="42" viewBox="0 0 380 42" fill="none" xmlns="http://www.w3.org/2000/svg">
<path fill-rule="evenodd" clip-rule="evenodd" d="M209.147 20.613V41.2259H211.073H212.999V20.613V0H211.073H209.147V20.613ZM376.148 20.613V41.2259H378.074H380V20.613V0H378.074H376.148V20.613ZM20.167 5.16663C14.9304 5.67578 9.77554 7.38195 6.40652 9.72136C2.59338 12.3688 0 16.6643 0 20.3325V21.3454H1.9H3.8L3.95794 20.1771C4.33476 17.3911 6.05326 14.5628 8.47896 12.7357C11.0896 10.7692 15.5206 9.11742 19.5855 8.59508C20.709 8.4509 27.759 8.37074 39.3306 8.37074H57.3286V6.6966V5.02245L39.1443 5.05593C29.1431 5.07435 20.6032 5.12415 20.167 5.16663ZM230.926 9.1126C228.696 9.55939 227.341 10.0131 225.122 11.0561C222.37 12.3498 219.598 14.8627 218.388 17.16C217.564 18.7256 216.852 21.2918 216.852 22.6969V23.4381H218.733H220.615L220.894 21.9062C221.439 18.9089 223.198 16.4238 226 14.6932C228.298 13.2739 230.632 12.5082 234.129 12.0265L234.979 11.9093V10.3494V8.78928L233.676 8.80581C232.96 8.81502 231.722 8.95314 230.926 9.1126ZM239.058 10.3151V11.9026L240.134 12.0288C246.389 12.7616 250.484 15.014 252.508 18.8342C253.922 21.504 254.005 22.2434 254.009 32.2797L254.013 41.2259H255.939H257.865V31.9047C257.865 21.3647 257.78 20.6069 256.269 17.6179C255.785 16.6613 254.973 15.39 254.464 14.7928C251.619 11.4526 246.47 9.17078 241.045 8.8462L239.058 8.72734V10.3151ZM282.278 9.01696C273.446 10.2111 267.591 14.0233 265.593 19.8805C264.565 22.8927 264.478 26.6717 265.363 29.8836C266.049 32.3764 267.206 34.1824 269.435 36.239C271.168 37.8387 271.706 38.1909 273.98 39.214C278.478 41.2378 282.609 41.9546 289.589 41.9226C297.742 41.8853 303.336 40.4675 307.775 37.3128C310.178 35.605 312.236 32.6829 313.052 29.8208C313.666 27.671 313.73 23.8799 313.195 21.4973C312.507 18.4376 311.446 16.6163 309.082 14.4395C306.494 12.0568 304.004 10.7598 300.116 9.76887C298.187 9.2773 294.511 8.792 292.704 8.79054L291.175 8.78928V10.3203V11.8511L293.724 12.0982C302.236 12.9234 307.398 16.111 309.217 21.6656C309.782 23.3916 309.782 27.247 309.217 28.9837C307.048 35.655 299.613 39.0225 287.889 38.6446C280.256 38.3985 275.743 37.023 272.349 33.9086C269.749 31.5238 268.711 29.0825 268.703 25.3349C268.686 17.6621 274.645 12.8608 285.227 12.0225L287.096 11.8743V10.3318V8.78928L285.34 8.81481C284.374 8.82883 282.996 8.91986 282.278 9.01696ZM336.579 9.19652C333.621 9.67763 331.359 10.3182 329.366 11.2394C324.959 13.2762 322.397 15.8764 320.952 19.778C320.124 22.0144 319.907 26.661 320.51 29.2258C321.741 34.458 325.838 38.37 332.187 40.3769C336.305 41.6786 342.559 42.2741 347.972 41.8799C357.891 41.1579 364.278 38.0798 367.162 32.6319C368.582 29.9493 368.992 27.956 368.833 24.4997C368.658 20.6724 367.796 18.2022 365.763 15.6951C363.736 13.1965 359.728 10.8587 355.746 9.85195C353.501 9.28462 349.904 8.792 347.993 8.79054L346.464 8.78928V10.3203V11.8511L349.02 12.0972C354.948 12.6679 359.488 14.4889 362.062 17.3287C365.325 20.9281 365.966 26.673 363.607 31.181C360.946 36.266 353.261 39.0257 342.838 38.6387C330.474 38.1798 324.031 33.618 324.031 25.3215C324.031 19.3044 327.619 15.0652 334.364 13.1136C336.159 12.5944 340.269 11.9283 341.678 11.9283H342.385V10.3588V8.78928L340.629 8.80644C339.663 8.81586 337.841 8.99143 336.579 9.19652ZM104.772 9.51984C100.827 10.3123 98.2707 12.5164 97.7921 15.5382L97.6346 16.5322H99.7723H101.91L102.052 15.7113C102.242 14.6153 103.062 13.7646 104.512 13.1594L105.707 12.6608L126.044 12.604L146.38 12.5473V10.8776V9.20782L126.27 9.22435C110.419 9.23753 105.866 9.30011 104.772 9.51984ZM171.646 9.45141C170.649 9.5552 168.762 9.8622 167.454 10.1334C158.78 11.9317 153.792 16.0971 153.049 22.1643L152.893 23.4381H154.934H156.974L157.085 22.3394C157.286 20.3344 158.061 18.9074 159.839 17.2728C161.67 15.5882 163.676 14.5724 166.844 13.7245C170.908 12.6369 172.349 12.5561 187.706 12.5561H201.896V10.882V9.20782L187.677 9.23523C179.857 9.2503 172.643 9.34761 171.646 9.45141ZM97.7826 20.3514C98.0917 22.0686 99.1761 23.279 101.3 24.2764C104.635 25.8428 108.9 26.3653 121.795 26.7876C135.917 27.2499 141.024 28.1334 141.996 30.282L142.308 30.9718H144.373H146.438L146.29 30.1127C145.748 26.9835 142.431 25.2621 135.277 24.3976C133.844 24.2243 130.071 23.9836 126.893 23.8627C112.053 23.2981 108.543 23.0085 105.221 22.0741C103.239 21.5166 101.968 20.6678 101.968 19.9012C101.968 19.4856 101.851 19.462 99.7952 19.462H97.6226L97.7826 20.3514ZM24.2457 23.0195V24.6937H39.201H54.1562V32.9598V41.2259H56.0823H58.0083V31.2857V21.3454H41.127H24.2457V23.0195ZM66.1658 23.8566V25.5308H78.5152H90.8646V23.8566V22.1825H78.5152H66.1658V23.8566ZM0.00385173 25.897C0.0099698 27.4418 0.602744 29.6653 1.43888 31.2796C3.91919 36.0687 8.63214 39.0278 16.3654 40.6513C18.3707 41.0721 19.184 41.0962 34.0459 41.1711L49.6243 41.2496V39.6855V38.1214L35.0656 38.0327C19.2878 37.9366 18.5464 37.8889 14.4631 36.7072C10.197 35.4725 6.83048 33.0998 5.31864 30.2619C4.58402 28.8833 3.86526 26.4811 3.85597 25.3738C3.85234 24.9226 3.77122 24.903 1.92606 24.903H0L0.00385173 25.897ZM153.049 28.2695C153.836 34.6892 159.448 38.9995 169.267 40.7243C171.179 41.0602 173.12 41.1104 186.658 41.1751L201.896 41.2477V39.6857V38.1239L187.564 38.0314C175.466 37.9534 172.861 37.8833 170.853 37.5815C167.849 37.1301 164.15 36.0036 162.239 34.9579C159.309 33.3557 157.339 30.7851 157.09 28.2389L156.967 26.9956H154.93H152.893L153.049 28.2695ZM142.2 34.1631C142.152 34.3071 142.046 34.7051 141.963 35.0477C141.739 35.9854 140.311 37.1121 138.767 37.5704C137.504 37.9454 136.327 37.971 117.433 38.0356L97.4359 38.104V39.665V41.2259H117.68C136.968 41.2259 138.005 41.2067 139.641 40.8204C140.586 40.5971 141.779 40.2164 142.294 39.9741C144.44 38.9627 145.953 37.0353 146.28 34.8955L146.432 33.9015H144.36C142.899 33.9015 142.262 33.9787 142.2 34.1631Z" fill="#000000"/>
</svg>
